<svg id="visual" viewBox="0 0 1920 1080" width="1920" height="1080" xmlns="http://www.w3.org/2000/svg" xmlns:xlink="http://www.w3.org/1999/xlink" version="1.1"><rect x="0" y="0" width="1920" height="1080" fill="#fff"></rect><defs><linearGradient id="grad1_0" x1="43.8%" y1="0%" x2="100%" y2="100%"><stop offset="14.444444444444446%" stop-color="#0063f4" stop-opacity="1"></stop><stop offset="85.55555555555554%" stop-color="#0063f4" stop-opacity="1"></stop></linearGradient></defs><defs><linearGradient id="grad1_1" x1="43.8%" y1="0%" x2="100%" y2="100%"><stop offset="14.444444444444446%" stop-color="#0063f4" stop-opacity="1"></stop><stop offset="85.55555555555554%" stop-color="#8893f9" stop-opacity="1"></stop></linearGradient></defs><defs><linearGradient id="grad1_2" x1="43.8%" y1="0%" x2="100%" y2="100%"><stop offset="14.444444444444446%" stop-color="#c8c8fd" stop-opacity="1"></stop><stop offset="85.55555555555554%" stop-color="#8893f9" stop-opacity="1"></stop></linearGradient></defs><defs><linearGradient id="grad1_3" x1="43.8%" y1="0%" x2="100%" y2="100%"><stop offset="14.444444444444446%" stop-color="#c8c8fd" stop-opacity="1"></stop><stop offset="85.55555555555554%" stop-color="#ffffff" stop-opacity="1"></stop></linearGradient></defs><defs><linearGradient id="grad2_0" x1="0%" y1="0%" x2="56.3%" y2="100%"><stop offset="14.444444444444446%" stop-color="#0063f4" stop-opacity="1"></stop><stop offset="85.55555555555554%" stop-color="#0063f4" stop-opacity="1"></stop></linearGradient></defs><defs><linearGradient id="grad2_1" x1="0%" y1="0%" x2="56.3%" y2="100%"><stop offset="14.444444444444446%" stop-color="#8893f9" stop-opacity="1"></stop><stop offset="85.55555555555554%" stop-color="#0063f4" stop-opacity="1"></stop></linearGradient></defs><defs><linearGradient id="grad2_2" x1="0%" y1="0%" x2="56.3%" y2="100%"><stop offset="14.444444444444446%" stop-color="#8893f9" stop-opacity="1"></stop><stop offset="85.55555555555554%" stop-color="#c8c8fd" stop-opacity="1"></stop></linearGradient></defs><defs><linearGradient id="grad2_3" x1="0%" y1="0%" x2="56.3%" y2="100%"><stop offset="14.444444444444446%" stop-color="#ffffff" stop-opacity="1"></stop><stop offset="85.55555555555554%" stop-color="#c8c8fd" stop-opacity="1"></stop></linearGradient></defs><g transform="translate(1920, 0)"><path d="M0 972C-125.6 959 -251.2 946 -372 898C-492.7 850 -608.7 766.9 -659 659C-709.4 551.2 -694.2 418.6 -735.4 304.6C-776.6 190.7 -874.3 95.3 -972 0L0 0Z" fill="#e4e3fe"></path><path d="M0 729C-94.2 719.3 -188.4 709.5 -279 673.5C-369.6 637.5 -456.5 575.2 -494.3 494.3C-532 413.4 -520.6 313.9 -551.6 228.5C-582.5 143 -655.7 71.5 -729 0L0 0Z" fill="#aaadfb"></path><path d="M0 486C-62.8 479.5 -125.6 473 -186 449C-246.4 425 -304.3 383.4 -329.5 329.5C-354.7 275.6 -347.1 209.3 -367.7 152.3C-388.3 95.3 -437.2 47.7 -486 0L0 0Z" fill="#5e7af7"></path><path d="M0 243C-31.4 239.8 -62.8 236.5 -93 224.5C-123.2 212.5 -152.2 191.7 -164.8 164.8C-177.3 137.8 -173.5 104.6 -183.9 76.2C-194.2 47.7 -218.6 23.8 -243 0L0 0Z" fill="#0063f4"></path></g><g transform="translate(0, 1080)"><path d="M0 -972C129 -962.7 258.1 -953.4 372 -898C485.8 -842.6 584.6 -741.2 632.2 -632.2C679.7 -523.2 676.2 -406.6 724.3 -300C772.4 -193.4 872.2 -96.7 972 0L0 0Z" fill="#e4e3fe"></path><path d="M0 -729C96.8 -722 193.6 -715 279 -673.5C364.4 -632 438.4 -555.9 474.1 -474.1C509.8 -392.4 507.2 -305 543.2 -225C579.3 -145.1 654.2 -72.5 729 0L0 0Z" fill="#aaadfb"></path><path d="M0 -486C64.5 -481.3 129 -476.7 186 -449C242.9 -421.3 292.3 -370.6 316.1 -316.1C339.9 -261.6 338.1 -203.3 362.2 -150C386.2 -96.7 436.1 -48.4 486 0L0 0Z" fill="#5e7af7"></path><path d="M0 -243C32.3 -240.7 64.5 -238.3 93 -224.5C121.5 -210.7 146.1 -185.3 158 -158C169.9 -130.8 169.1 -101.7 181.1 -75C193.1 -48.4 218.1 -24.2 243 0L0 0Z" fill="#0063f4"></path></g></svg>